<svg preserveAspectRatio="none" overflow="visible" style="display: block;" width="15.0545" height="18.4809" viewBox="0 0 15.0545 18.4809" fill="none" xmlns="http://www.w3.org/2000/svg">
<path id="Vector" d="M7.64448 5.31C6.91448 5.31 5.78448 4.48 4.59448 4.51C3.02448 4.53 1.58448 5.42 0.774482 6.83C-0.855518 9.66 0.354482 13.84 1.94448 16.14C2.72448 17.26 3.64448 18.52 4.86448 18.48C6.03448 18.43 6.47448 17.72 7.89448 17.72C9.30448 17.72 9.70448 18.48 10.9445 18.45C12.2045 18.43 13.0045 17.31 13.7745 16.18C14.6645 14.88 15.0345 13.62 15.0545 13.55C15.0245 13.54 12.6045 12.61 12.5745 9.81C12.5545 7.47 14.4845 6.35 14.5745 6.3C13.4745 4.69 11.7845 4.51 11.1945 4.47C9.65448 4.35 8.36448 5.31 7.64448 5.31ZM10.2445 2.95C10.8945 2.17 11.3245 1.08 11.2045 0C10.2745 0.04 9.15448 0.62 8.48448 1.4C7.88448 2.09 7.36448 3.2 7.50448 4.26C8.53448 4.34 9.59448 3.73 10.2445 2.95Z" fill="white"/>
</svg>
