<svg preserveAspectRatio="none" overflow="visible" style="display: block;" width="38.0026" height="38.0026" viewBox="0 0 38.0026 38.0026" fill="none" xmlns="http://www.w3.org/2000/svg">
<g id="cast">
<path id="Vector" d="M3.16591 12.6681V9.50149C3.16591 8.66166 3.49959 7.85624 4.09354 7.26239C4.68749 6.66854 5.49307 6.33492 6.33304 6.33492L31.6701 6.33492C32.5101 6.33492 33.3157 6.66854 33.9096 7.26239C34.5036 7.85624 34.8373 8.66166 34.8373 9.50149V28.5009C34.8373 29.3407 34.5036 30.1461 33.9096 30.74C33.3157 31.3338 32.5101 31.6675 31.6701 31.6675H22.1687M3.16591 19.0012C6.40807 19.3452 9.43426 20.7902 11.7397 23.0952C14.0451 25.4002 15.4904 28.4259 15.8345 31.6675M3.16591 25.3343C4.73784 25.627 6.18431 26.3887 7.31495 27.5192C8.44559 28.6496 9.20742 30.0958 9.50018 31.6675M3.16591 31.6675H3.18174" stroke="white" stroke-width="3.16688" stroke-linecap="round"/>
</g>
</svg>
