<svg preserveAspectRatio="none" overflow="visible" style="display: block;" width="12.5" height="15" viewBox="0 0 12.5 15" fill="none" xmlns="http://www.w3.org/2000/svg">
<path id="Vector" d="M1.875 0C0.846875 0 0 0.846875 0 1.875V13.125C0 14.1531 0.846875 15 1.875 15H12.5V0H1.875ZM1.875 1.25H11.25V11.25H1.875C1.6615 11.2533 1.45012 11.293 1.25 11.3675V1.875C1.25 1.52125 1.52125 1.25 1.875 1.25ZM5.625 2.5V4.375H3.75V5.625H5.625V10H6.875V5.625H8.75V4.375H6.875V2.5H5.625ZM1.875 12.5H11.25V13.75H1.875C1.52125 13.75 1.25 13.4787 1.25 13.125C1.25 12.7713 1.52125 12.5 1.875 12.5Z" fill="white"/>
</svg>
